<svg width="24" height="24" viewBox="0 0 24 24" fill="none" xmlns="http://www.w3.org/2000/svg">
<g clip-path="url(#clip0_91_546)">
<path d="M19.8359 0.0187435C19.6359 0.0468688 19.3585 0.129369 19.1793 0.213744C18.9302 0.329994 18.751 0.453743 18.5378 0.656244C18.0812 1.08749 16.9944 2.17124 16.9698 2.21812C16.9548 2.24624 16.9472 2.28562 16.9529 2.30437C16.9585 2.32312 18.0208 3.38624 19.3114 4.66687C21.3 6.63749 21.668 6.99374 21.7114 6.99374C21.7566 6.99374 21.9 6.85687 22.6227 6.13687C23.2302 5.53124 23.5114 5.23687 23.5812 5.13562C23.7623 4.87124 23.8831 4.59187 23.9566 4.27124C24 4.07999 24 3.55124 23.9566 3.35999C23.8831 3.04124 23.7472 2.73562 23.5661 2.47499C23.4302 2.28374 21.7491 0.611244 21.5302 0.449994C21.3019 0.284994 21 0.142494 20.7265 0.0731187C20.5378 0.0262437 20.4529 0.0149937 20.2265 0.00936842C20.0755 0.00561857 19.9 0.00936842 19.8359 0.0187435Z" fill="#333333"/>
<path d="M16.4981 2.68689C16.4755 2.70002 13.3623 5.78064 9.57736 9.53252C3.97737 15.0881 2.69812 16.365 2.69812 16.4044C2.69812 16.4438 3.14529 16.8975 5.05284 18.7931C7.13397 20.8613 7.4151 21.1331 7.4585 21.1275C7.51699 21.1219 7.23774 21.3956 15.6849 13.0163C20.3887 8.34752 21.3019 7.43439 21.3019 7.39127C21.3019 7.34814 20.9132 6.95439 18.9585 5.01189C17.6679 3.73314 16.5962 2.67939 16.5755 2.67377C16.5547 2.66814 16.5189 2.67377 16.4981 2.68689Z" fill="#333333"/>
<path d="M2.2585 16.7963C2.22831 16.83 2.15284 17.0606 1.39624 19.4531C1.19812 20.0813 0.960386 20.8331 0.867933 21.1219C0.0717068 23.6269 -0.00376488 23.8763 0.0113295 23.9231C0.0509521 24.0338 -0.0150856 24.0544 2.13397 23.3006C3.23774 22.9144 4.79812 22.3669 5.60189 22.0856C7.16039 21.54 7.11699 21.5588 7.08869 21.4463C7.08114 21.42 6.10189 20.4375 4.72831 19.0819C2.89435 17.2688 2.37171 16.7625 2.33586 16.7625C2.30944 16.7625 2.27548 16.7775 2.2585 16.7963Z" fill="#333333"/>
</g>
<defs>
<clipPath id="clip0_91_546">
<rect width="24" height="24" fill="white"/>
</clipPath>
</defs>
</svg>
