<svg width="18" height="18" viewBox="0 0 18 18" fill="none" xmlns="http://www.w3.org/2000/svg">
<path fill-rule="evenodd" clip-rule="evenodd" d="M2.27842 7.34315L8.32784 13.7071C8.69906 14.0976 9.30094 14.0976 9.67216 13.7071L15.7216 7.34315C16.0928 6.95262 16.0928 6.31946 15.7216 5.92893C15.3504 5.53841 14.7485 5.53841 14.3773 5.92893L9.95058 10.5858L9.95058 1C9.95058 0.447715 9.52499 -3.56338e-07 9 -3.31478e-07C8.47501 -3.06618e-07 8.04942 0.447715 8.04942 1L8.04943 10.5858L3.62273 5.92893C3.25151 5.53841 2.64964 5.53841 2.27842 5.92893C1.90719 6.31946 1.90719 6.95262 2.27842 7.34315Z" fill="#333333"/>
<path fill-rule="evenodd" clip-rule="evenodd" d="M0 17C0 16.4477 0.447715 16 1 16H17C17.5523 16 18 16.4477 18 17C18 17.5523 17.5523 18 17 18H1C0.447715 18 0 17.5523 0 17Z" fill="#333333"/>
</svg>
