<svg width="18" height="18" viewBox="0 0 18 18" fill="none" xmlns="http://www.w3.org/2000/svg">
<path fill-rule="evenodd" clip-rule="evenodd" d="M2.27842 10.6569L8.32784 4.29289C8.69906 3.90237 9.30094 3.90237 9.67216 4.29289L15.7216 10.6569C16.0928 11.0474 16.0928 11.6805 15.7216 12.0711C15.3504 12.4616 14.7485 12.4616 14.3773 12.0711L9.95058 7.41421L9.95058 17C9.95058 17.5523 9.52499 18 9 18C8.47501 18 8.04942 17.5523 8.04942 17L8.04943 7.41421L3.62273 12.0711C3.25151 12.4616 2.64964 12.4616 2.27842 12.0711C1.90719 11.6805 1.90719 11.0474 2.27842 10.6569Z" fill="#333333"/>
<path fill-rule="evenodd" clip-rule="evenodd" d="M0 1C0 0.447715 0.447715 0 1 0H17C17.5523 0 18 0.447715 18 1C18 1.55228 17.5523 2 17 2H1C0.447715 2 0 1.55228 0 1Z" fill="#333333"/>
</svg>
